<svg width="30" height="11" viewBox="0 0 30 11" fill="none" xmlns="http://www.w3.org/2000/svg">
<path d="M20.8984 9.71059C20.741 9.10662 20.5187 8.4176 20.6569 8.34341C21.5512 7.84584 22.4914 7.43586 23.4645 7.11917C15.8264 7.2526 8.19543 7.43251 0.614263 7.60667C0.468483 7.63242 0.276023 5.11692 0.172999 5.10871C8.50504 4.90145 16.8945 4.73178 25.2338 4.57099C24.3832 4.03969 23.493 3.56616 22.6436 3.03566C22.4728 2.91957 22.4522 1.95216 22.4188 1.76304C22.3854 1.57392 22.3647 0.605525 22.193 0.490596L27.2692 3.52987C27.7215 3.79024 28.1762 4.09894 28.6266 4.35966C28.9124 4.55192 29.3357 4.67116 29.501 5.032C29.6931 5.69248 29.8131 6.37182 29.859 7.05814L29.9421 7.52897C29.9338 7.48169 29.8855 7.49022 29.8765 7.439C29.8363 7.78637 29.6013 7.87663 29.0792 8.06637C28.1836 8.41858 27.2631 8.62995 26.3509 8.88859C24.7086 9.25574 23.115 9.81441 21.6029 10.5531C21.6041 10.5595 21.6041 10.566 21.6028 10.5724C21.6014 10.5787 21.5988 10.5847 21.5951 10.59C21.5914 10.5953 21.5867 10.5998 21.5812 10.6032C21.5757 10.6067 21.5695 10.6089 21.5631 10.6099C21.4247 10.6831 21.2387 10.7688 21.0955 10.8378L20.8984 9.71059Z" fill="#007189"/>
</svg>
