<svg width="95" height="35" viewBox="0 0 95 35" fill="none" xmlns="http://www.w3.org/2000/svg">
<g clip-path="url(#clip0)">
<path d="M7.96575 0V14.592C9.36536 13.574 10.675 12.804 11.9036 12.295C13.1313 11.786 14.2769 11.532 15.3446 11.532C17.667 11.532 19.6004 12.543 21.14 14.561C22.6796 16.578 23.4493 19.143 23.4493 22.255C23.4493 25.838 22.4316 28.765 20.3952 31.043C18.3598 33.321 15.7445 34.46 12.5385 34.46C11.7247 34.46 10.9229 34.326 10.1341 34.06C9.34534 33.792 8.62656 33.398 7.96475 32.882L2.1694 34.556V8.554C2.1694 7.218 2.00343 6.047 1.67253 5.041C1.34162 4.042 0.781778 2.985 0 1.885L7.96575 0ZM7.96575 31.321C8.53159 31.512 9.07842 31.652 9.60027 31.76C10.1281 31.862 10.612 31.912 11.0509 31.912C12.9973 31.912 14.5689 31.123 15.7645 29.545C16.9602 27.967 17.552 25.855 17.552 23.22C17.552 20.598 16.9542 18.536 15.7645 17.034C14.5689 15.532 12.9403 14.781 10.8659 14.781C10.522 14.781 10.1341 14.807 9.70125 14.851C9.26838 14.895 8.68955 14.984 7.97076 15.112V31.32H7.96575V31.321Z" fill="#F46752"/>
<path d="M45.5951 22.062H31.4081V22.438C31.4081 25.39 32.1839 27.636 33.7425 29.164C35.295 30.698 37.5594 31.462 40.5305 31.462C41.1924 31.462 41.9491 31.417 42.8019 31.334C43.6606 31.245 44.6404 31.118 45.76 30.946C44.3794 32.218 42.8968 33.179 41.3193 33.835C39.7417 34.484 38.0812 34.815 36.3377 34.815C33.0367 34.815 30.4024 33.784 28.43 31.728C26.4575 29.672 25.4718 26.911 25.4718 23.456C25.4718 19.95 26.5025 17.086 28.5699 14.865C30.6373 12.644 33.3026 11.531 36.5666 11.531C39.3588 11.531 41.5662 12.448 43.1768 14.287C44.7863 16.126 45.5941 18.639 45.5941 21.828V22.062H45.5951ZM39.4179 20.032C39.4179 17.945 39.0999 16.323 38.4631 15.177C37.8263 14.031 36.9295 13.459 35.7659 13.459C34.3853 13.459 33.3236 14.115 32.5848 15.425C31.847 16.736 31.4591 18.658 31.4331 21.19L39.4179 20.032Z" fill="#F46752"/>
<path d="M55.2592 0V27.224C55.2592 28.828 55.4052 30.125 55.6971 31.124C55.9891 32.123 56.4409 33.142 57.0517 34.179H47.6934C48.3042 33.11 48.7561 32.073 49.049 31.055C49.3409 30.043 49.4869 28.764 49.4869 27.224V8.553C49.4869 7.217 49.3149 6.046 48.978 5.04C48.6341 4.041 48.0753 2.984 47.2915 1.884L55.2592 0Z" fill="#F46752"/>
<path d="M67.5568 0V27.224C67.5568 28.828 67.7028 30.125 67.9947 31.124C68.2876 32.123 68.7395 33.142 69.3493 34.179H59.998C60.6088 33.11 61.0607 32.073 61.3526 31.055C61.6455 30.043 61.7915 28.764 61.7915 27.224V8.553C61.7915 7.217 61.6185 6.046 61.2816 5.04C60.9377 4.041 60.3789 2.984 59.5901 1.884L67.5568 0Z" fill="#F46752"/>
<path d="M71.9835 23.215C71.9835 19.677 73.0582 16.845 75.2096 14.719C77.359 12.587 80.2292 11.525 83.8112 11.525C87.2522 11.525 89.9754 12.575 91.9858 14.669C93.9973 16.769 95.002 19.601 95.002 23.165C95.002 26.76 93.9333 29.636 91.7959 31.781C89.6585 33.926 86.7953 35.001 83.1944 35.001C79.7533 35.001 77.0231 33.938 75.0067 31.819C72.9953 29.699 71.9835 26.829 71.9835 23.215ZM83.4343 13.319C81.8637 13.319 80.6291 14.185 79.7253 15.909C78.8226 17.64 78.3717 20.027 78.3717 23.075C78.3717 26.199 78.8356 28.662 79.7653 30.463C80.694 32.265 81.9477 33.162 83.5372 33.162C85.1528 33.162 86.4194 32.296 87.3282 30.558C88.2379 28.821 88.6958 26.377 88.6958 23.214C88.6958 20.09 88.2319 17.659 87.3022 15.922C86.3744 14.185 85.0898 13.319 83.4343 13.319Z" fill="#F46752"/>
</g>
<defs>
<clipPath id="clip0">
<rect width="95" height="35" fill="white"/>
</clipPath>
</defs>
</svg>
