<svg width="31" height="11" viewBox="0 0 31 11" fill="none" xmlns="http://www.w3.org/2000/svg">
<path d="M30.3485 6.69202C30.2405 6.07946 30.2459 5.25256 29.9913 4.66586C29.8271 4.30614 29.4028 4.1866 29.1169 3.99409C28.6677 3.7332 28.2102 3.42519 27.7611 3.16429C26.0704 2.1506 24.3798 1.13691 22.6892 0.123214C22.8607 0.238719 22.8803 1.20697 22.9135 1.39545C22.9468 1.58393 22.9663 2.55219 23.1379 2.66769C23.9873 3.1981 24.8774 3.67277 25.7268 4.20317C17.389 4.36156 9.00229 4.52857 0.672774 4.73408C0.770527 4.71684 0.966496 7.25729 1.11313 7.23144C8.69288 7.06096 16.3215 6.88187 23.9584 6.74989C23.0058 7.06362 22.021 7.4802 21.1505 7.97379C21.0122 8.04677 21.2345 8.73633 21.3914 9.34027C21.4579 9.71723 21.5244 10.0942 21.5908 10.4711C21.7292 10.3982 21.9164 10.3166 22.0547 10.2436C22.0547 10.2436 22.1036 10.235 22.0952 10.1879C23.5679 9.39376 25.2048 8.95938 26.8416 8.52501C27.7537 8.26702 28.674 8.05615 29.5694 7.70392C30.0905 7.51488 30.3265 7.42467 30.3661 7.0776C30.3745 7.12472 30.4233 7.1161 30.4316 7.16322C30.415 7.06898 30.3984 6.97474 30.3818 6.8805C30.3735 6.83338 30.3569 6.73914 30.3485 6.69202ZM28.0382 5.59326C27.9893 5.60188 27.9893 5.60188 27.9404 5.6105C27.9321 5.56338 27.9238 5.51626 27.9238 5.51626C27.9238 5.51626 27.981 5.55476 28.0382 5.59326Z" fill="white"/>
</svg>
