<svg width="30" height="11" viewBox="0 0 30 11" fill="none" xmlns="http://www.w3.org/2000/svg">
<path d="M29.8485 6.69214C29.7405 6.07958 29.7459 5.25269 29.4913 4.66598C29.3271 4.30626 28.9028 4.18673 28.6169 3.99422C28.1677 3.73332 27.7102 3.42531 27.2611 3.16441C25.5704 2.15072 23.8798 1.13703 22.1892 0.123336C22.3607 0.238841 22.3803 1.2071 22.4135 1.39558C22.4468 1.58406 22.4663 2.55231 22.6379 2.66782C23.4873 3.19822 24.3774 3.67289 25.2268 4.20329C16.889 4.36168 8.50229 4.52869 0.172774 4.7342C0.270527 4.71696 0.466496 7.25741 0.613126 7.23156C8.19288 7.06108 15.8215 6.88199 23.4584 6.75002C22.5058 7.06374 21.521 7.48033 20.6505 7.97391C20.5122 8.04689 20.7345 8.73645 20.8914 9.34039C20.9579 9.71735 21.0244 10.0943 21.0908 10.4713C21.2292 10.3983 21.4164 10.3167 21.5547 10.2437C21.5547 10.2437 21.6036 10.2351 21.5952 10.188C23.0679 9.39389 24.7048 8.95951 26.3416 8.52513C27.2537 8.26714 28.174 8.05627 29.0694 7.70405C29.5905 7.51501 29.8265 7.4248 29.8661 7.07772C29.8745 7.12484 29.9233 7.11622 29.9316 7.16334C29.915 7.0691 29.8984 6.97486 29.8818 6.88062C29.8735 6.8335 29.8569 6.73926 29.8485 6.69214ZM27.5382 5.59339C27.4893 5.602 27.4893 5.602 27.4404 5.61062C27.4321 5.5635 27.4238 5.51638 27.4238 5.51638C27.4238 5.51638 27.481 5.55488 27.5382 5.59339Z" fill="white"/>
</svg>
