<svg width="31" height="12" viewBox="0 0 31 12" fill="none" xmlns="http://www.w3.org/2000/svg">
<path d="M30.3485 7.31702C30.2405 6.70446 30.2459 5.87756 29.9913 5.29086C29.8271 4.93114 29.4028 4.8116 29.1169 4.61909C28.6677 4.3582 28.2102 4.05019 27.7611 3.78929C26.0704 2.7756 24.3798 1.76191 22.6892 0.748214C22.8607 0.863719 22.8803 1.83197 22.9135 2.02045C22.9468 2.20893 22.9663 3.17719 23.1379 3.29269C23.9873 3.8231 24.8774 4.29777 25.7268 4.82817C17.389 4.98656 9.00229 5.15357 0.672774 5.35908C0.770527 5.34184 0.966496 7.88229 1.11313 7.85644C8.69288 7.68596 16.3215 7.50687 23.9584 7.37489C23.0058 7.68862 22.021 8.1052 21.1505 8.59879C21.0122 8.67177 21.2345 9.36133 21.3914 9.96527C21.4579 10.3422 21.5244 10.7192 21.5908 11.0961C21.7292 11.0232 21.9164 10.9416 22.0547 10.8686C22.0547 10.8686 22.1036 10.86 22.0952 10.8129C23.5679 10.0188 25.2048 9.58438 26.8416 9.15001C27.7537 8.89202 28.674 8.68115 29.5694 8.32892C30.0905 8.13988 30.3265 8.04967 30.3661 7.7026C30.3745 7.74972 30.4233 7.7411 30.4316 7.78822C30.415 7.69398 30.3984 7.59974 30.3818 7.5055C30.3735 7.45838 30.3569 7.36414 30.3485 7.31702ZM28.0382 6.21826C27.9893 6.22688 27.9893 6.22688 27.9404 6.2355C27.9321 6.18838 27.9238 6.14126 27.9238 6.14126C27.9238 6.14126 27.981 6.17976 28.0382 6.21826Z" fill="white"/>
</svg>
